<svg width="51" height="50" viewBox="0 0 51 50" fill="none" xmlns="http://www.w3.org/2000/svg">
<path d="M17.313 13.2395C16.9291 13.1833 16.5376 13.2606 16.2039 13.4584H16.175C15.4004 13.9128 14.7023 14.4849 14.1075 15.1583C13.6118 15.7304 13.3433 16.3087 13.273 16.8664C13.2317 17.1968 13.2606 17.5314 13.3577 17.8475L13.3949 17.8681C13.9526 19.506 14.6796 21.0819 15.5677 22.5649C16.7134 24.6475 18.1226 26.5739 19.7606 28.2965L19.8101 28.3667L19.8886 28.4245L19.9361 28.4803L19.9939 28.5299C21.7227 30.1726 23.6535 31.5884 25.74 32.7433C28.1255 34.0425 29.5734 34.6559 30.443 34.912V34.9244C30.697 35.0029 30.9283 35.038 31.1617 35.038C31.9027 34.9849 32.6041 34.6836 33.1528 34.1829C33.8241 33.5881 34.3921 32.8879 34.8341 32.1092V32.0948C35.2492 31.3099 35.1088 30.5705 34.5098 30.0686C33.3077 29.0161 32.0066 28.0823 30.6247 27.2803C29.6994 26.7784 28.7596 27.082 28.3796 27.5901L27.5679 28.6145C27.1507 29.1226 26.3947 29.0524 26.3947 29.0524L26.3741 29.0648C20.7334 27.6252 19.2277 21.9143 19.2277 21.9143C19.2277 21.9143 19.1574 21.1377 19.68 20.7411L20.6962 19.9232C21.1836 19.5266 21.5224 18.5889 20.9998 17.6636C20.1996 16.2827 19.2679 14.9824 18.2177 13.7806C17.9879 13.4984 17.6662 13.3061 17.3089 13.2374M26.845 10.7568C26.5711 10.7568 26.3084 10.8656 26.1147 11.0593C25.9211 11.253 25.8123 11.5157 25.8123 11.7896C25.8123 12.0634 25.9211 12.3261 26.1147 12.5198C26.3084 12.7135 26.5711 12.8223 26.845 12.8223C29.4557 12.8223 31.6244 13.6753 33.3408 15.3111C34.2227 16.2054 34.9105 17.265 35.3607 18.4258C35.8131 19.5886 36.0196 20.8299 35.9659 22.0733C35.9544 22.3472 36.0522 22.6145 36.2377 22.8163C36.4233 23.0181 36.6814 23.1379 36.9553 23.1494C37.2291 23.1609 37.4964 23.0631 37.6982 22.8776C37.9 22.6921 38.0198 22.434 38.0313 22.1601C38.093 20.6307 37.8392 19.1051 37.2857 17.6781C36.7297 16.2438 35.8831 14.9401 34.7989 13.8488L34.7783 13.8281C32.6488 11.7937 29.9555 10.7568 26.845 10.7568Z" fill="black"/>
<path d="M26.7727 14.1524C26.4988 14.1524 26.2361 14.2612 26.0424 14.4549C25.8488 14.6485 25.74 14.9112 25.74 15.1851C25.74 15.459 25.8488 15.7217 26.0424 15.9154C26.2361 16.109 26.4988 16.2178 26.7727 16.2178H26.8078C28.6915 16.3521 30.0629 16.98 31.0233 18.0106C32.0086 19.0723 32.5187 20.3921 32.4795 22.0238C32.4732 22.2976 32.5759 22.5628 32.7652 22.761C32.9544 22.9591 33.2145 23.0739 33.4884 23.0802C33.7623 23.0865 34.0275 22.9838 34.2256 22.7945C34.4238 22.6053 34.5386 22.3452 34.5449 22.0713C34.5945 19.9294 33.9046 18.0808 32.5373 16.6061V16.602C31.139 15.1025 29.2202 14.3094 26.9111 14.1545L26.876 14.1503L26.7727 14.1524Z" fill="black"/>
<path d="M26.7334 17.612C26.5952 17.5998 26.456 17.6156 26.324 17.6584C26.192 17.7012 26.0701 17.7702 25.9653 17.8612C25.8606 17.9522 25.7753 18.0633 25.7145 18.188C25.6536 18.3127 25.6186 18.4484 25.6114 18.587C25.6041 18.7255 25.6249 18.8641 25.6724 18.9945C25.72 19.1248 25.7933 19.2443 25.888 19.3457C25.9827 19.447 26.0968 19.5283 26.2237 19.5846C26.3505 19.6409 26.4873 19.6711 26.626 19.6733C27.4894 19.7187 28.0409 19.979 28.3878 20.328C28.7369 20.6792 28.9972 21.243 29.0447 22.125C29.0472 22.2636 29.0777 22.4002 29.1342 22.5268C29.1907 22.6533 29.2721 22.7672 29.3736 22.8617C29.475 22.9561 29.5945 23.0292 29.7248 23.0765C29.8551 23.1238 29.9935 23.1444 30.132 23.137C30.2704 23.1297 30.4059 23.0945 30.5304 23.0337C30.655 22.9729 30.766 22.8876 30.8569 22.7829C30.9478 22.6783 31.0167 22.5564 31.0595 22.4245C31.1023 22.2927 31.1181 22.1536 31.106 22.0155C31.0399 20.7762 30.6516 19.6816 29.8564 18.876C29.057 18.0705 27.9686 17.6781 26.7334 17.612Z" fill="black"/>
<path fill-rule="evenodd" clip-rule="evenodd" d="M15.4583 5.35367C22.0306 3.88454 28.8462 3.88454 35.4186 5.35367L36.1187 5.50858C38.0395 5.93918 39.8035 6.89331 41.2151 8.2652C42.6267 9.63708 43.6308 11.3731 44.1161 13.2808C45.7859 19.8546 45.7859 26.7416 44.1161 33.3155C43.6308 35.2231 42.6267 36.9592 41.2151 38.3311C39.8035 39.7029 38.0395 40.6571 36.1187 41.0877L35.4165 41.2426C31.2999 42.1618 27.0763 42.5086 22.8649 42.2732L17.3853 47.1766C17.1787 47.3615 16.9263 47.4876 16.6543 47.5418C16.3824 47.5959 16.1009 47.576 15.8392 47.4842C15.5776 47.3924 15.3453 47.2321 15.1668 47.0199C14.9883 46.8078 14.8699 46.5516 14.8242 46.2781L13.9174 40.8625C12.1792 40.3206 10.6088 39.3425 9.35594 38.0213C8.1031 36.7001 7.20963 35.08 6.76073 33.3155C5.0909 26.7416 5.0909 19.8546 6.76073 13.2808C7.24599 11.3731 8.25009 9.63708 9.66171 8.2652C11.0733 6.89331 12.8373 5.93918 14.7581 5.50858L15.4583 5.35367ZM34.7432 8.3754C28.6156 7.00562 22.2612 7.00562 16.1337 8.3754L15.4314 8.53237C14.0702 8.83843 12.8203 9.51523 11.82 10.4878C10.8197 11.4604 10.108 12.6909 9.76387 14.0429C8.22098 20.1166 8.22098 26.4796 9.76387 32.5533C10.1082 33.9056 10.8201 35.1363 11.8208 36.1089C12.8215 37.0815 14.0719 37.7582 15.4335 38.0639L15.6194 38.1052C15.9201 38.1724 16.1939 38.3279 16.4058 38.5515C16.6177 38.7752 16.7581 39.0571 16.809 39.361L17.4163 42.992L21.2828 39.5324C21.4372 39.3938 21.6178 39.2877 21.814 39.2203C22.0102 39.1529 22.218 39.1256 22.425 39.14C26.5539 39.4315 30.7032 39.1219 34.7432 38.2209L35.4434 38.0639C36.8049 37.7582 38.0553 37.0815 39.056 36.1089C40.0567 35.1363 40.7686 33.9056 41.113 32.5533C42.6538 26.481 42.6538 20.1174 41.113 14.0429C40.7686 12.6906 40.0567 11.46 39.056 10.4874C38.0553 9.51474 36.8049 8.83809 35.4434 8.53237L34.7432 8.3754Z" fill="black"/>
</svg>
