<svg width="36" height="36" viewBox="0 0 36 36" fill="none" xmlns="http://www.w3.org/2000/svg">
<path d="M18.2969 9.59082L20.3844 13.6336L24.8475 14.2822L21.5722 17.2332L22.664 21.6003L18.2969 19.1438L13.9298 21.6003L15.0216 17.2332L11.7463 14.2822L16.3317 13.6336L18.2969 9.59082Z" fill="#C0C0C0"/>
<path d="M20.1922 33.6098L18.2969 32.518L22.664 24.8756H29.2146C29.5015 24.8761 29.7856 24.8199 30.0507 24.7103C30.3158 24.6007 30.5567 24.4399 30.7595 24.237C30.9624 24.0342 31.1232 23.7933 31.2328 23.5282C31.3424 23.2631 31.3986 22.979 31.3981 22.6921V9.59084C31.3986 9.30397 31.3424 9.01984 31.2328 8.75472C31.1232 8.48961 30.9624 8.24873 30.7595 8.04588C30.5567 7.84303 30.3158 7.68221 30.0507 7.57263C29.7856 7.46305 29.5015 7.40687 29.2146 7.4073H7.37917C7.0923 7.40687 6.80817 7.46305 6.54305 7.57263C6.27794 7.68221 6.03706 7.84303 5.83421 8.04588C5.63136 8.24873 5.47054 8.48961 5.36096 8.75472C5.25138 9.01984 5.1952 9.30397 5.19563 9.59084V22.6921C5.1952 22.979 5.25138 23.2631 5.36096 23.5282C5.47054 23.7933 5.63136 24.0342 5.83421 24.237C6.03706 24.4399 6.27794 24.6007 6.54305 24.7103C6.80817 24.8199 7.0923 24.8761 7.37917 24.8756H17.2051V27.0592H7.37917C6.22095 27.0592 5.11016 26.5991 4.29117 25.7801C3.47219 24.9611 3.01208 23.8503 3.01208 22.6921V9.59084C3.01208 8.43262 3.47219 7.32183 4.29117 6.50284C5.11016 5.68386 6.22095 5.22375 7.37917 5.22375H29.2146C30.3728 5.22375 31.4836 5.68386 32.3026 6.50284C33.1216 7.32183 33.5817 8.43262 33.5817 9.59084V22.6921C33.5817 23.8503 33.1216 24.9611 32.3026 25.7801C31.4836 26.5991 30.3728 27.0592 29.2146 27.0592H23.9359L20.1922 33.6098Z" fill="#C0C0C0"/>
</svg>
