<svg width="42" height="42" viewBox="0 0 42 42" fill="none" xmlns="http://www.w3.org/2000/svg">
<path d="M12.1 27.3684V27.8684H12.6H16.3V41.0622C7.25217 38.9259 0.5 30.786 0.5 21.0526C0.5 9.70654 9.68532 0.5 21 0.5C32.3147 0.5 41.5 9.70654 41.5 21.0526C41.5 31.5308 33.6866 40.1634 23.6 41.4404V27.8684H29.4H29.9V27.3684V21.0526V20.5526H29.4H23.6V16.8421C23.6 15.9592 24.3223 15.2368 25.2 15.2368H29.4H29.9V14.7368V8.42105V7.92105H29.4H24.15C19.8197 7.92105 16.3 11.4514 16.3 15.7895V20.5526H12.6H12.1V21.0526V27.3684Z" fill="black" stroke="black"/>
</svg>
