<svg width="36" height="36" viewBox="0 0 36 36" fill="none" xmlns="http://www.w3.org/2000/svg">
<path d="M17.8577 25.7076L11.6819 29.428C11.4091 29.6016 11.1239 29.676 10.8262 29.6512C10.5286 29.6264 10.2682 29.5272 10.045 29.3536C9.82175 29.18 9.64813 28.9632 9.52412 28.7033C9.40011 28.4433 9.37531 28.1517 9.44971 27.8283L11.0867 20.7968L5.61774 16.0719C5.36972 15.8487 5.21495 15.5942 5.15344 15.3085C5.09193 15.0228 5.11029 14.744 5.2085 14.4722C5.30672 14.2003 5.45554 13.9771 5.65495 13.8025C5.85436 13.6279 6.12718 13.5163 6.47343 13.4677L13.6909 12.8352L16.4812 6.21296C16.6052 5.91533 16.7977 5.6921 17.0586 5.54329C17.3195 5.39448 17.5859 5.32007 17.8577 5.32007C18.1296 5.32007 18.3959 5.39448 18.6569 5.54329C18.9178 5.6921 19.1103 5.91533 19.2343 6.21296L22.0245 12.8352L29.242 13.4677C29.5893 13.5173 29.8621 13.6289 30.0605 13.8025C30.2589 13.9761 30.4077 14.1993 30.507 14.4722C30.6062 14.745 30.625 15.0243 30.5635 15.31C30.502 15.5957 30.3467 15.8497 30.0977 16.0719L24.6288 20.7968L26.2657 27.8283C26.3402 28.1507 26.3153 28.4424 26.1913 28.7033C26.0673 28.9642 25.8937 29.181 25.6705 29.3536C25.4473 29.5262 25.1868 29.6254 24.8892 29.6512C24.5916 29.677 24.3064 29.6026 24.0335 29.428L17.8577 25.7076Z" fill="#FADF17"/>
</svg>
