<svg width="50" height="50" viewBox="0 0 50 50" fill="none" xmlns="http://www.w3.org/2000/svg">
<path d="M16.1104 4.13086H33.46C40.0693 4.13086 45.4395 9.50098 45.4395 16.1104V33.46C45.4395 36.6371 44.1773 39.6842 41.9307 41.9307C39.6842 44.1773 36.6371 45.4395 33.46 45.4395H16.1104C9.50098 45.4395 4.13086 40.0693 4.13086 33.46V16.1104C4.13086 12.9332 5.39298 9.88616 7.63957 7.63957C9.88616 5.39298 12.9332 4.13086 16.1104 4.13086ZM15.6973 8.26172C13.7252 8.26172 11.834 9.0451 10.4395 10.4395C9.0451 11.834 8.26172 13.7252 8.26172 15.6973V33.873C8.26172 37.9832 11.5871 41.3086 15.6973 41.3086H33.873C35.8451 41.3086 37.7363 40.5252 39.1308 39.1308C40.5252 37.7363 41.3086 35.8451 41.3086 33.873V15.6973C41.3086 11.5871 37.9832 8.26172 33.873 8.26172H15.6973ZM35.6287 11.3599C36.3134 11.3599 36.9701 11.6319 37.4543 12.1161C37.9384 12.6002 38.2104 13.2569 38.2104 13.9417C38.2104 14.6264 37.9384 15.2831 37.4543 15.7672C36.9701 16.2514 36.3134 16.5234 35.6287 16.5234C34.9439 16.5234 34.2872 16.2514 33.8031 15.7672C33.3189 15.2831 33.0469 14.6264 33.0469 13.9417C33.0469 13.2569 33.3189 12.6002 33.8031 12.1161C34.2872 11.6319 34.9439 11.3599 35.6287 11.3599ZM24.7852 14.458C27.5241 14.458 30.1508 15.546 32.0876 17.4828C34.0243 19.4195 35.1123 22.0462 35.1123 24.7852C35.1123 27.5241 34.0243 30.1508 32.0876 32.0876C30.1508 34.0243 27.5241 35.1123 24.7852 35.1123C22.0462 35.1123 19.4195 34.0243 17.4828 32.0876C15.546 30.1508 14.458 27.5241 14.458 24.7852C14.458 22.0462 15.546 19.4195 17.4828 17.4828C19.4195 15.546 22.0462 14.458 24.7852 14.458ZM24.7852 18.5889C23.1418 18.5889 21.5657 19.2417 20.4037 20.4037C19.2417 21.5657 18.5889 23.1418 18.5889 24.7852C18.5889 26.4285 19.2417 28.0046 20.4037 29.1666C21.5657 30.3286 23.1418 30.9814 24.7852 30.9814C26.4285 30.9814 28.0046 30.3286 29.1666 29.1666C30.3286 28.0046 30.9814 26.4285 30.9814 24.7852C30.9814 23.1418 30.3286 21.5657 29.1666 20.4037C28.0046 19.2417 26.4285 18.5889 24.7852 18.5889Z" fill="black"/>
</svg>
