<svg width="36" height="36" viewBox="0 0 36 36" fill="none" xmlns="http://www.w3.org/2000/svg">
<path fill-rule="evenodd" clip-rule="evenodd" d="M22.9235 4.77298L22.7995 4.90923C22.6385 5.08577 22.4754 5.26046 22.3104 5.43328L22.0519 5.09265C21.5138 4.39392 21.0597 3.88035 20.5723 3.46984C19.905 2.90561 19.2098 2.56498 18.4027 2.56498C17.966 2.56498 17.552 2.67154 17.1625 2.86194C16.31 3.2742 15.6777 3.96419 14.8339 5.14331L14.6243 5.44027C14.4648 5.28422 14.2784 5.09381 14.0653 4.86905L13.9483 4.74678C12.9806 3.73012 12.7238 3.47159 12.2906 3.11873C11.8818 2.78508 11.5132 2.55974 11.059 2.44794C10.5768 2.32077 10.0643 2.38086 9.62454 2.61613C9.18479 2.8514 8.8504 3.2444 8.68858 3.71614C8.17797 5.13171 7.91845 6.62556 7.92172 8.13039C7.92172 15.0129 11.7857 19.8551 18.4027 19.8551C25.0197 19.8551 28.8837 15.0147 28.8837 8.13039C28.8864 6.62545 28.6263 5.1316 28.1151 3.71614C27.9526 3.2439 27.6171 2.85083 27.1762 2.61614C26.7354 2.38145 26.2219 2.32259 25.7394 2.45144C25.2818 2.56847 24.9184 2.79906 24.5166 3.14144C24.0974 3.4943 23.8616 3.74584 22.9235 4.77298ZM18.4027 16.3615C13.9099 16.3615 11.4154 13.2346 11.4154 8.13039C11.4154 7.81596 11.4299 7.50561 11.4591 7.19933L11.5412 7.28318C12.2539 8.03082 12.6941 8.45705 13.1482 8.80642C14.2802 9.67284 15.4261 10.01 16.4742 8.81166C16.6629 8.5968 16.848 8.35399 17.0961 8.00287L17.2271 7.81421L17.676 7.17662C17.9817 6.7469 18.2385 6.43072 18.4254 6.23333C18.7371 6.54253 19.0249 6.87479 19.2866 7.22728C19.208 7.12596 20.2474 8.51469 20.5094 8.81166C21.561 10.0152 22.7209 9.6676 23.8266 8.79419C24.2633 8.44482 24.6861 8.02034 25.3534 7.29191C25.3778 7.57024 25.3901 7.84973 25.3901 8.13039C25.3901 13.2364 22.8956 16.3615 18.4027 16.3615Z" fill="#C0C0C0"/>
<path d="M16.6559 19.8551C16.6559 19.3918 16.84 18.9475 17.1676 18.6199C17.4952 18.2923 17.9395 18.1083 18.4028 18.1083C18.8661 18.1083 19.3104 18.2923 19.638 18.6199C19.9656 18.9475 20.1496 19.3918 20.1496 19.8551V31.2095C20.1496 31.6728 19.9656 32.1171 19.638 32.4447C19.3104 32.7723 18.8661 32.9564 18.4028 32.9564C17.9395 32.9564 17.4952 32.7723 17.1676 32.4447C16.84 32.1171 16.6559 31.6728 16.6559 31.2095V19.8551Z" fill="#C0C0C0"/>
<path fill-rule="evenodd" clip-rule="evenodd" d="M21.4894 23.375C17.6725 26.5787 15.1623 30.6505 17.2306 33.1153C19.2674 35.5434 24.8817 34.2123 28.2269 31.4034C31.49 28.6661 32.9783 24.7043 30.945 22.2815C28.9117 19.8586 24.7525 20.6359 21.4894 23.375ZM20.0098 30.9353C19.9878 30.9269 19.9668 30.9164 19.9469 30.9038L19.9784 30.9562C19.9912 30.9679 20.0017 30.9609 20.0098 30.9353ZM25.9805 28.7273C24.0467 30.3518 20.7155 31.2113 20.0098 30.9353L20.022 30.8829C20.0884 30.5527 20.2945 30.0846 20.6299 29.5396C21.3357 28.3936 22.5113 27.0783 23.7358 26.0511C25.7167 24.3881 27.8216 23.9951 28.2688 24.5279C28.716 25.0607 27.9631 27.0643 25.9805 28.7273Z" fill="#C0C0C0"/>
<path fill-rule="evenodd" clip-rule="evenodd" d="M14.7903 23.375C18.6089 26.5787 21.1173 30.6505 19.0491 33.1153C17.0123 35.5434 11.3997 34.2123 8.05451 31.4034C4.78968 28.6661 3.30312 24.7043 5.33644 22.2815C7.36975 19.8586 11.5272 20.6359 14.7903 23.375ZM16.2716 30.9353L16.3328 30.9038L16.3013 30.9562C16.2885 30.9679 16.2786 30.9609 16.2716 30.9353ZM10.2974 28.729C12.2329 30.3536 15.5641 31.213 16.2699 30.937L16.2576 30.8846C16.1913 30.5545 15.9851 30.0863 15.6497 29.5413C14.9423 28.3954 13.7684 27.08 12.5439 26.0529C10.5612 24.3899 8.45628 23.9969 8.01084 24.5296C7.5654 25.0624 8.31479 27.066 10.2974 28.729Z" fill="#C0C0C0"/>
</svg>
