<svg width="50" height="50" viewBox="0 0 50 50" fill="none" xmlns="http://www.w3.org/2000/svg">
<path fill-rule="evenodd" clip-rule="evenodd" d="M11.8411 4.21967C14.3547 1.7205 18.4939 2.16457 20.5985 4.97768L23.2051 8.45587C24.9194 10.7444 24.7666 13.9416 22.7321 15.9637L22.2405 16.4553C22.1848 16.6616 22.1791 16.8783 22.224 17.0873C22.3541 17.93 23.0585 19.7145 26.0079 22.6474C28.9573 25.5803 30.7542 26.2826 31.6093 26.4148C31.8248 26.4581 32.0473 26.4518 32.2599 26.3962L33.1026 25.5576C34.912 23.7607 37.6879 23.424 39.9268 24.6406L43.8718 26.7886C47.2529 28.6227 48.1059 33.2162 45.3382 35.9695L42.4033 38.8858C41.478 39.805 40.2346 40.5712 38.7185 40.7137C34.9801 41.0628 26.2702 40.6167 17.1141 31.5143C8.56947 23.0171 6.92952 15.6064 6.72091 11.9547C6.61764 10.1082 7.48925 8.54675 8.60045 7.44381L11.8411 4.21967ZM18.12 6.83451C17.0728 5.43621 15.1231 5.32468 14.0243 6.41729L10.7815 9.63936C10.0999 10.3168 9.77361 11.0645 9.81492 11.7791C9.98015 14.6811 11.302 21.3669 19.2994 29.3188C27.6891 37.659 35.4366 37.9089 38.4314 37.628C39.0428 37.5722 39.65 37.2542 40.218 36.6903L43.151 33.7718C44.3448 32.5863 44.0825 30.4258 42.3929 29.5088L38.448 27.3628C37.3574 26.7721 36.081 26.9662 35.2879 27.7552L34.3481 28.6909L33.2534 27.5921C34.3481 28.6909 34.346 28.6929 34.344 28.6929L34.3419 28.6971L34.3357 28.7033L34.3212 28.7157L34.2903 28.7446C34.2031 28.8255 34.1091 28.8988 34.0094 28.9635C33.8441 29.073 33.6252 29.1948 33.3505 29.2961C32.7928 29.5047 32.0534 29.6162 31.1405 29.4757C29.3498 29.201 26.9766 27.9804 23.8227 24.8451C20.6708 21.7097 19.4398 19.351 19.1631 17.5623C19.0205 16.6494 19.1341 15.91 19.3448 15.3523C19.4608 15.0385 19.6268 14.7456 19.8364 14.4849L19.9025 14.4126L19.9314 14.3816L19.9438 14.3692L19.95 14.363L19.9541 14.3589L20.549 13.7682C21.433 12.8862 21.5569 11.426 20.7245 10.3127L18.12 6.83451Z" fill="black"/>
</svg>
