<svg width="43" height="43" viewBox="0 0 43 43" fill="none" xmlns="http://www.w3.org/2000/svg">
<path d="M17.4953 15.5192L18.3901 18.7561C19.2328 21.8053 19.6532 23.3308 20.892 24.024C22.1308 24.719 23.7032 24.309 26.848 23.4924L30.1839 22.6237C33.3286 21.8071 34.901 21.3988 35.6168 20.1982C36.3327 18.9959 35.9122 17.4704 35.0678 14.4212L34.1748 11.1861C33.3321 8.13512 32.9099 6.60965 31.6728 5.91641C30.4323 5.22143 28.8599 5.63147 25.7152 6.44981L22.3793 7.31505C19.2345 8.13165 17.6621 8.54169 16.948 9.744C16.2322 10.9446 16.6527 12.47 17.4953 15.5192Z" fill="#C0C0C0"/>
<path d="M4.83459 9.46782C4.88037 9.3028 4.95822 9.14843 5.0637 9.01352C5.16917 8.87862 5.30021 8.76582 5.44931 8.68159C5.5984 8.59736 5.76264 8.54334 5.93263 8.52263C6.10262 8.50192 6.27502 8.51491 6.43999 8.56087L9.39885 9.38094C10.1828 9.59438 10.8982 10.007 11.4754 10.5788C12.0527 11.1506 12.4721 11.862 12.693 12.6439L16.4303 26.1716L16.7048 27.122C17.8129 27.5304 18.7466 28.3077 19.3492 29.3233L19.8878 29.1565L35.2989 25.1517C35.4645 25.1086 35.6371 25.0985 35.8066 25.1221C35.9761 25.1456 36.1394 25.2023 36.287 25.289C36.4346 25.3756 36.5637 25.4905 36.667 25.627C36.7702 25.7635 36.8455 25.9191 36.8887 26.0847C36.9318 26.2504 36.9418 26.4229 36.9183 26.5924C36.8947 26.762 36.838 26.9252 36.7514 27.0728C36.6648 27.2204 36.5499 27.3496 36.4134 27.4528C36.2768 27.556 36.1213 27.6313 35.9556 27.6745L20.6019 31.6636L20.0285 31.8409C20.0181 34.0474 18.4944 36.0663 16.1888 36.664C13.4262 37.3833 10.5855 35.7918 9.84537 33.1127C9.10522 30.4335 10.7454 27.6762 13.5079 26.9586C13.6457 26.9239 13.783 26.8938 13.9197 26.8683L10.1807 13.3371C10.0796 12.9897 9.89053 12.6743 9.63181 12.4213C9.37309 12.1684 9.05347 11.9865 8.70387 11.8933L5.74327 11.0715C5.57829 11.0259 5.42391 10.9482 5.28895 10.8429C5.15399 10.7377 5.04109 10.6068 4.95671 10.4579C4.87232 10.309 4.81811 10.1449 4.79715 9.975C4.7762 9.80512 4.78892 9.63278 4.83459 9.46782Z" fill="#C0C0C0"/>
</svg>
