<svg width="53" height="35" viewBox="0 0 53 35" fill="none" xmlns="http://www.w3.org/2000/svg">
<path d="M21.078 24.308L34.7524 17.0156L21.078 9.72321V24.308ZM51.5358 5.27484C51.8783 6.41732 52.1154 7.94873 52.2735 9.89337C52.458 11.838 52.537 13.5153 52.537 14.9737L52.6951 17.0156C52.6951 22.3391 52.2735 26.2527 51.5358 28.7564C50.8771 30.9441 49.3489 32.354 46.9777 32.9617C45.7393 33.2777 43.4734 33.4965 39.9956 33.6423C36.5704 33.8125 33.435 33.8854 30.5368 33.8854L26.3475 34.0312C15.3079 34.0312 8.43121 33.6423 5.71742 32.9617C3.34614 32.354 1.81798 30.9441 1.15929 28.7564C0.816774 27.6139 0.579646 26.0825 0.421561 24.1379C0.237128 22.1932 0.158085 20.516 0.158085 19.0575L0 17.0156C0 11.6922 0.421561 7.77857 1.15929 5.27484C1.81798 3.08712 3.34614 1.67725 5.71742 1.06955C6.95575 0.753549 9.22164 0.534776 12.6995 0.388928C16.1247 0.218772 19.2601 0.145848 22.1583 0.145848L26.3475 0C37.3872 0 44.2639 0.388929 46.9777 1.06955C49.3489 1.67725 50.8771 3.08712 51.5358 5.27484Z" fill="black"/>
</svg>
